Patient4_TMGait_0pt4_03_right_43_EMG.mot
version=1
nRows=26
nColumns=33
inDegrees=no
endheader
time	1LAddLong	2LGlutMax	3LGlutMed	4LIliopsoas	5LSemiMemb	6LBicFemLong	7LRecFem	8LVastMed	9LVastLat	10LGasMed	11LTibAnt	12lTibPost	13LPeroneusLong	14LSol	15LExtDigLong	16LFlexDigLong	17RAddLong	18RGlutMax	19RGlutMed	20RIliopsoas	21RSemiMemb	22RBicFemLong	23RRecFem	24RVastMed	25RVastLat	26RGasMed	27RTibAnt	28RTibPost	29RPeroneusLong	30RSol	31RExtDigLong	32RFlexDigLong
57.735	0.007477	-0.11459	0.031891	0.022736	0.030823	-0.038605	0.078888	0.025177	-0.065155	0.005341	0.01709	0.006866	-0.44891	-0.32684	-0.029907	-0.001526	0.00885	-0.19012	0.070801	-0.088196	-0.13962	0.080872	-0.007477	-0.10147	0.013123	0.006866	0.040741	-0.007324	0.35446	-0.10208	0.006866	0.00824
57.736	0.014038	-0.070801	0.1265	0.004578	0.027008	-0.058136	-0.054932	0.019989	0.046997	-0.03891	0.011292	0.014191	-0.088806	-0.14511	0.008392	0.00473	0.002136	-0.13214	-0.37262	0.004272	-0.16739	0.14175	-0.061188	-0.057831	0.007782	0.003204	0.077515	-0.001831	-0.6778	-0.095215	0.003662	0.009003
57.737	0.02182	-0.089569	0.15381	-0.005341	0.009766	-0.074615	-0.030365	-0.001984	0.15427	-0.03952	0.027924	0.003357	0.10346	-0.028229	0.012665	0.00351	-0.005951	-0.1059	-0.36957	0.12482	0.067291	0.13534	-0.09201	0.010834	0.029449	0.002441	0.4245	-0.005951	-0.74158	-0.018005	0.005188	0.003662
57.738	0.015411	-0.15961	0.13443	0.014496	0.016174	-0.045776	-0.052338	-0.001831	0.12024	-0.015717	0.067902	0.006104	0.08667	0.12405	-0.10239	0.001068	0.006561	-0.1001	0.29053	0.11231	0.14023	0.096893	-0.22766	0.022888	0.035706	0.008087	0.40543	-0.001984	-0.10559	0.001984	0.008698	0.001221
57.739	0.010376	-0.14587	0.13016	0.008545	0.010071	-0.028076	-0.10986	-0.00412	0.067291	-0.009613	0.09903	0.009155	-0.033417	0.11612	0.062103	-0.006256	0.01297	-0.13382	0.72967	0.13519	0.10284	0.06546	-0.26199	0.005035	0.029449	0.000763	0.20493	-0.007172	-0.075226	-0.061798	0.00473	0.001526
57.74	0.001984	-0.095978	0.031738	0.012817	0.012512	0.019379	-0.046692	-0.00473	0.072174	-0.024567	0.095673	0.005188	-0.19577	0.12924	0.21103	-0.000305	0.022888	-0.15503	0.44311	0.088501	0.031433	0.061798	-0.24307	-0.015717	0.030823	-0.004883	0.23086	-0.007324	-0.19287	-0.11368	0.007782	-0.001678
57.741	-0.00351	-0.089874	0.030212	0.013428	0.011139	0.043335	-0.061035	-0.002441	0.071106	0.006104	0.011444	0.009155	-0.16419	0.1004	0.40894	0.003204	0.011292	-0.12894	0.36179	0.050964	0.010529	0.091858	-0.093384	0.0177	0.021057	-0.004578	-0.69763	-0.005493	0.009613	-0.090332	0.003204	-0.002747
57.742	0.00061	-0.10391	0.065002	0.025177	0.006866	0.02594	-0.062256	-0.003052	0.050354	-0.014343	-0.093079	0.005188	-0.12054	0.01236	-0.1709	0.005646	-0.024109	-0.16571	0.084381	-0.02121	-0.046234	0.088959	-0.096436	0.073242	0.049286	0.004578	-0.9668	-0.001526	0.32791	-0.13672	0.00473	0.000458
57.743	-0.000305	-0.1149	0.066986	0.020599	0.016937	0.004883	-0.038605	0.002289	0.014648	-0.031281	0.02243	0.002136	0.17777	-0.11917	-0.20187	-0.002441	-0.007782	-0.18951	-0.079346	-0.058136	-0.020142	0.011444	-0.030975	0.011139	0.040741	0.000916	-0.25253	-0.00412	0.29007	-0.16495	0.00351	0.006866
57.744	0.008087	-0.061951	0.11429	0.002441	0.008545	-0.019226	-0.051575	0.00824	0.002136	-0.02655	0.10727	0.006409	0.085602	0.04364	-0.17914	0.00885	0.015106	-0.17288	0.16861	-0.060883	-0.009308	-0.024872	-0.011902	-0.065308	0.014496	0.000458	0.004883	-0.001221	-0.12009	-0.16327	0.003967	0.005493
57.745	0.003967	-0.090179	0.093689	0.009155	0.01709	-0.039825	-0.031281	0.010834	-0.002136	-0.041504	0.12817	-0.003204	0.14786	0.21393	-0.21988	-0.001068	0.010834	-0.12329	0.091858	-0.033264	-0.001831	-0.000916	-0.022888	-0.066376	0.019531	-0.005188	0.10315	-0.003662	-0.47684	-0.11597	0.005493	0.004425
57.746	0.000458	-0.10376	0.041656	0	0.015564	-0.009766	0.001068	0.008698	0.0354	-0.013885	0.049133	-0.00473	0.061951	0.12787	-0.020752	0.00412	0.022583	-0.17746	-0.028076	-0.054474	-0.035095	0.034637	0.013428	-0.085297	0.022125	-0.00885	0.003815	-0.002594	-0.038452	-0.000153	0.005951	0.002441
57.747	0.008087	-0.098419	0.029907	-0.005951	0.012665	0.010986	-0.006866	0.007477	-0.001984	0.005646	-0.15839	0.00824	-0.046387	0.1651	0.14175	-0.015717	0.018921	-0.17319	0.39154	-0.047607	-0.090485	0.1532	0.033264	-0.084686	0.027466	-0.013885	0.17639	-0.002136	0.16754	0.059204	0.005188	0.001678
57.748	-0.012665	-0.071564	-0.006561	0.003662	0.013885	0.023193	0.048218	-0.000763	0.01297	0.002136	-0.32852	0.010071	-0.055084	0.16785	0.00473	-0.009155	0.004883	-0.10269	0.43091	-0.025787	-0.062866	0.19012	0.033875	-0.035553	0.036163	-0.009918	0.14969	-0.001068	0.13931	0.086975	-0.00412	0.002289
57.749	0.10544	-0.089569	-0.00351	-0.012207	0.012207	0.020905	0.064087	0.00412	0.002594	-0.039215	-0.12726	-0.002899	0.48904	0.13351	0.22614	-0.007019	-0.024414	-0.11978	0.41824	-0.010071	0.10544	0.12589	0.014801	0.036469	0.029297	-0.006561	0.11688	-0.003967	0.084381	0.12894	0.003052	0.006104
57.75	0.082245	-0.12283	0.00824	0.00412	0.008545	0.005951	0.06485	0.000458	-0.007935	-0.007629	0.17258	0.013428	0.28854	0.022125	0.9407	-0.00946	-0.025024	-0.19852	0.041809	0.003815	0.026703	0.069885	-0.038147	0.035248	0.040588	-0.009766	0.15121	-0.005493	-0.27954	0.047913	-0.004425	0.002441
57.751	0.022888	-0.11734	0.046387	-0.01709	0.011292	-0.005951	0.053711	0.004578	-0.012207	0.013733	0.38467	-0.004425	-0.28	-0.049438	-0.050354	-0.001984	-0.019836	-0.17639	-0.41641	0.037994	0.010834	0.1268	-0.062561	-0.001831	0.02594	-0.011444	0.27573	-0.00351	-0.42862	-0.02655	-0.000305	0
57.752	-0.008545	-0.085144	0.016937	0.005035	0.011444	-0.008087	0.050049	-0.008545	0.025482	0.014648	0.15182	-0.004425	0.026855	0.042114	-0.40665	-0.007477	-0.017853	-0.17975	-0.52002	0.009766	0.022736	0.11551	-0.004425	-0.02243	0.024872	-0.009003	0.42404	-0.001221	-0.25528	-0.058746	0.003204	-0.002136
57.753	0.001984	-0.065765	0.04425	-0.006104	0.014343	-0.00351	0.06424	-0.004425	-0.001831	-0.007935	-0.18509	-0.001984	0.1471	0.079498	-0.079803	-0.000763	-0.01236	-0.10712	-0.64865	-0.035095	0.011597	0.072784	0.081635	0.014954	0.039825	-0.001373	0.29602	-0.006256	-0.11032	-0.040131	0.006561	-0.002899
57.754	-0.001678	-0.071716	0.058441	0.001984	0.011292	-0.011444	0.10193	0.001678	-0.084534	-0.041962	-0.067444	0.007172	0.22598	0.014648	-0.23575	0.002899	0.002136	-0.11322	-0.61813	-0.032501	-0.000916	0.10117	0.095978	-0.074768	0.042419	0.000153	-0.2066	-0.002594	0.17899	-0.074005	-0.005493	-0.001831
57.755	0.007019	-0.11047	0.010986	0.016937	0.00885	-0.011902	0.077515	0.002441	-0.10132	-0.021667	-0.029144	-0.003357	-0.19333	-0.040894	-0.41077	-0.003204	0.011902	-0.12802	-0.59387	-0.001984	-0.01297	0.075684	0.080414	-0.055237	0.027313	0.007629	-0.23254	-0.00351	0.3035	-0.13962	0.001068	-0.011444
57.756	0.006714	-0.096741	-0.068665	-0.019073	0.012207	-0.020294	0.099487	0.003204	-0.048828	0.024719	0.055695	0.007629	-0.15778	-0.10498	-0.32547	-0.002899	0.019531	-0.095673	0.24033	-0.072021	-0.13275	0.053406	0.098572	-0.027771	0.042267	0.000763	-0.17181	-0.001678	0.48737	-0.10956	0.001984	-0.002594
57.757	0.00473	-0.058746	-0.002136	-0.003662	0.01236	-0.004883	0.11704	0.003204	-0.032501	0.009766	0.052948	-0.005035	0.28488	-0.10635	-0.014038	0	0.033722	-0.12421	0.45029	-0.13565	-0.19913	0.059967	0.066376	-0.033112	0.037537	0.001068	0.017548	-0.001526	0.007172	-0.048828	-0.002136	-0.009766
57.758	0.010681	-0.086517	-0.018311	0.020447	0.009308	0	0.12131	0.008087	-0.041656	-0.037231	-0.00351	0.00351	0.52429	-0.050812	0.1564	0.00824	0.03418	-0.16174	0.41351	-0.20416	-0.27878	0.034485	0.028839	-0.045776	0.024414	-0.001526	0.061951	-0.008087	-0.29785	-0.019073	0.000153	-0.00946
57.759	0.007477	-0.078278	0.036621	0.047607	0.010071	-0.023956	0.037384	0.00824	-0.059052	-0.007324	-0.054016	0.002136	-0.14603	-0.10666	0.11002	-0.001526	0.015411	-0.16678	0.36713	-0.10391	-0.14526	0.05127	0.048523	0.0354	0.041046	-0.000458	0.084229	-0.003662	-0.51575	-0.052338	-0.001984	-0.004578
57.76	0.007782	-0.090637	0.001526	0.018005	0.016022	-0.008698	-0.005646	0.00412	-0.065155	0.050964	-0.021973	0.020294	-0.35812	-0.24963	0.019836	-0.000305	-0.020599	-0.18188	-0.054932	0.043945	0.41046	0.10803	-0.028534	-0.009308	0.035248	-0.000458	0.17014	-0.002136	-0.6665	-0.007629	-0.000153	0.003662
